# xmcd CD database file
#
# Track frame offsets:
#	150
#	34890
#	59225
#	79918
#	90818
#	106363
#	154593
#
# Disc length: 2508 seconds
#
# Revision: 0
# Processed by: cddbd v1.5.2PL0 Copyright (c) Steve Scherf et al.
# Submitted via: CDex 1.51
#
DISCID=5009ca07
DTITLE=Walter Norris Aladar Pege - Winter Rose
DYEAR=1980
DGENRE=Jazz
TTITLE0=Playground
TTITLE1=Winter Rose
TTITLE2=Elvesztettem Paromat
TTITLE3=For High Notes
TTITLE4=A Child Is Born
TTITLE5=Evening Lights
TTITLE6=Enkephalins Rose
EXTD=YEAR: 1980
EXTT0=
EXTT1=
EXTT2=
EXTT3=
EXTT4=
EXTT5=
EXTT6=
PLAYORDER=
